<svg width="1920" height="1047" viewBox="0 0 1920 1047" fill="none" xmlns="http://www.w3.org/2000/svg">
<g clip-path="url(#clip0_304_37)">
<rect width="1920" height="1047" fill="white"/>
<circle cx="159.5" cy="132.5" r="292" stroke="#008000"/>
<circle cx="214.5" cy="77.5" r="292" stroke="#008000"/>
<path d="M1529 823.618L1533.01 835.974L1533.13 836.32H1533.49H1546.48L1535.97 843.956L1535.68 844.17L1535.79 844.515L1539.8 856.871L1529.29 849.235L1529 849.021L1528.71 849.235L1518.2 856.871L1522.21 844.515L1522.32 844.17L1522.03 843.956L1511.52 836.32H1524.51H1524.87L1524.99 835.974L1529 823.618Z" stroke="#263238"/>
<circle cx="1521" cy="483" r="8" fill="#263238" fill-opacity="0.4"/>
<path d="M445 435L449.49 448.82H464.021L452.265 457.361L456.756 471.18L445 462.639L433.244 471.18L437.735 457.361L425.979 448.82H440.51L445 435Z" fill="#263238" fill-opacity="0.4"/>
<circle cx="599.5" cy="821.5" r="8" stroke="#263238" stroke-opacity="0.4"/>
<path d="M211 758.515C211 753.9 207.22 753.374 204.183 752.952C200.873 752.492 199 752.092 199 749.242C199 746.85 201.507 746 203.654 746C204.724 745.965 205.787 746.186 206.755 746.643C207.723 747.1 208.569 747.78 209.222 748.628L210.778 747.372C210.078 746.472 209.208 745.72 208.216 745.157C207.225 744.595 206.132 744.234 205 744.096V741H203V744.022C199.385 744.242 197 746.282 197 749.242C197 753.972 200.83 754.505 203.907 754.932C207.16 755.385 209 755.774 209 758.515C209 761.547 205.867 762 204 762C200.57 762 199.122 761.036 197.778 759.372L196.222 760.628C197.015 761.673 198.04 762.518 199.217 763.097C200.393 763.677 201.689 763.974 203 763.965V767H205V763.955C208.726 763.651 211 761.628 211 758.515V758.515Z" fill="#263238" fill-opacity="0.4"/>
<path d="M1785.33 447V432.403C1785.33 432.092 1785.44 431.791 1785.63 431.546C1785.82 431.3 1786.08 431.125 1786.38 431.047C1786.68 430.969 1787 430.993 1787.29 431.116C1787.57 431.238 1787.81 431.451 1787.96 431.723L1796.04 446.277C1796.19 446.549 1796.43 446.762 1796.71 446.884C1797 447.007 1797.32 447.031 1797.62 446.953C1797.92 446.875 1798.18 446.7 1798.37 446.454C1798.56 446.209 1798.67 445.908 1798.67 445.597V431" stroke="#263238" stroke-opacity="0.4" stroke-width="2" stroke-linecap="round" stroke-linejoin="round"/>
<path d="M1782.67 436.333H1801.33" stroke="#263238" stroke-opacity="0.4" stroke-width="2" stroke-linecap="round" stroke-linejoin="round"/>
<path d="M1782.67 441.667H1801.33" stroke="#263238" stroke-opacity="0.4" stroke-width="2" stroke-linecap="round" stroke-linejoin="round"/>
<path d="M1345.23 230.324C1345.95 230.324 1346.53 229.926 1346.53 229.433C1346.53 228.941 1345.95 228.542 1345.23 228.542C1344.51 228.542 1343.92 228.941 1343.92 229.433C1343.92 229.926 1344.51 230.324 1345.23 230.324Z" fill="#263238" fill-opacity="0.4"/>
<path d="M1383.5 225.002L1383.01 224.714C1382.97 224.692 1379.22 222.468 1378.29 219.77L1378.08 219.172L1377.7 219.674C1377.69 219.689 1377.16 220.348 1375.67 221.12C1374.56 214.841 1370.81 207.344 1365.88 204.147C1367.29 204.261 1368.7 204.144 1370.07 203.648C1370.89 203.349 1370.53 202.01 1369.71 202.313C1368.59 202.72 1367.46 202.831 1366.35 202.774C1369.09 200.256 1371.25 196.398 1371.25 193.576C1371.25 192.898 1371.25 191.636 1370.25 191.636C1369.84 191.636 1369.52 191.888 1369.06 192.236C1368.37 192.769 1367.33 193.576 1365.8 193.576C1365.21 193.576 1364.14 192.96 1363.28 192.465C1362.24 191.867 1361.58 191.5 1361.02 191.5C1360.1 191.5 1358.74 192.247 1357.54 192.906C1357.05 193.174 1356.39 193.542 1356.25 193.577C1354.51 193.577 1353.5 192.776 1352.83 192.245C1352.44 191.935 1352.16 191.71 1351.78 191.71C1350.8 191.71 1350.8 192.896 1350.8 194.269C1350.8 196.919 1352.81 200.418 1355.46 202.769C1353.79 202.889 1352.15 203.392 1351 204.51C1350.36 205.127 1351.32 206.105 1351.96 205.49C1352.92 204.56 1354.18 204.161 1355.52 204.084C1355.56 204.221 1355.61 204.357 1355.66 204.489C1350.03 208.54 1346.02 218.159 1346.02 224.652C1346.02 225.293 1346.07 225.872 1346.15 226.418C1344.69 225.773 1344.16 225.206 1344.15 225.194L1343.77 224.748L1343.58 225.31C1342.73 227.788 1339.07 229.937 1339.04 229.959L1338.5 230.271L1339.05 230.565C1339.24 230.669 1339.43 230.76 1339.62 230.858L1339.27 231.097L1339.45 233.377L1353.74 236.5L1359.16 233.034C1359.71 233.037 1360.26 233.039 1360.83 233.039L1367.16 236.5L1381.48 232V229.593L1381.1 229.366C1381.29 229.246 1381.47 229.124 1381.66 228.998L1382.17 228.662L1382.05 228.609L1382.69 228.434L1382.8 225.932L1382.43 225.67C1382.63 225.552 1382.82 225.432 1383.02 225.308L1383.5 225.002V225.002ZM1352.16 194.269C1352.16 193.936 1352.16 193.676 1352.17 193.475C1352.29 193.565 1352.42 193.663 1352.56 193.764C1353 194.811 1353.83 196.319 1355.23 197.268C1356.93 198.423 1356.71 197.096 1357.62 195.884C1358.52 194.672 1359.14 194.038 1360.66 197.154C1361.33 198.512 1362.43 194.716 1363.48 194.162C1363.76 194.313 1364.04 194.454 1364.31 194.574C1366.2 197.64 1367.07 196.684 1368.75 194.135C1369.21 193.865 1369.58 193.576 1369.88 193.344C1369.89 193.414 1369.89 193.491 1369.89 193.577C1369.89 195.985 1367.92 199.438 1365.51 201.69C1365.4 201.401 1365.23 201.134 1365.03 200.901C1364.06 199.799 1362.54 201.02 1361.82 201.822C1360.54 201.411 1358.45 200.279 1357.1 200.927C1356.76 201.084 1356.45 201.295 1356.18 201.551C1353.96 199.527 1352.16 196.606 1352.16 194.269V194.269ZM1364.31 202.5C1363.98 202.428 1363.64 202.348 1363.31 202.26C1363.73 201.899 1364.11 201.773 1364.27 202.309C1364.29 202.368 1364.3 202.434 1364.31 202.5V202.5ZM1358.61 202.965C1358.36 202.918 1358.11 202.875 1357.85 202.841C1357.65 202.717 1357.45 202.585 1357.26 202.448C1357.95 201.988 1359.13 202.232 1360.26 202.616C1359.7 202.672 1359.15 202.794 1358.61 202.965V202.965ZM1358.95 204.945C1358.53 205.05 1358.08 205.008 1357.68 204.851C1357.84 204.766 1358 204.692 1358.16 204.618C1358.43 204.745 1358.69 204.851 1358.95 204.945ZM1345.08 232.284C1343.29 231.766 1341.56 231.08 1339.9 230.234C1340.91 229.565 1343.13 227.948 1344.03 226.004C1344.65 226.489 1346.08 227.374 1348.86 228.053C1348.81 228.13 1348.75 228.212 1348.69 228.292C1346.32 227.671 1344.97 226.886 1344.95 226.872L1344.63 226.677L1344.47 227.027C1344.26 227.486 1343.78 227.556 1343.51 227.556C1343.44 227.556 1343.38 227.55 1343.38 227.55L1343.11 227.51L1343.01 227.767C1342.81 228.29 1341.99 228.974 1341.69 229.194L1341.19 229.562L1341.77 229.797C1341.98 229.884 1342.04 229.964 1342.04 229.985C1342.05 230.036 1341.96 230.173 1341.86 230.252L1341.42 230.604L1341.93 230.838C1342.97 231.318 1344.15 231.716 1345.33 232.043C1345.23 232.136 1345.15 232.215 1345.08 232.284ZM1351.13 229.49C1352.18 229.637 1353.34 229.73 1354.61 229.73H1354.61C1354.87 229.73 1355.14 229.725 1355.41 229.717C1355.43 229.774 1355.46 229.827 1355.49 229.877C1355.56 229.978 1355.65 230.062 1355.76 230.127L1353.85 231.763C1353.81 231.761 1353.77 231.761 1353.74 231.761C1352.88 231.761 1352.25 232.074 1351.94 232.632C1350.79 232.485 1349.64 232.298 1348.49 232.072C1349.41 231.254 1350.29 230.392 1351.13 229.49V229.49ZM1342.62 230.387C1342.69 230.246 1342.74 230.074 1342.71 229.886C1342.69 229.717 1342.61 229.561 1342.48 229.444C1342.82 229.155 1343.29 228.71 1343.54 228.249C1344.12 228.24 1344.6 228.02 1344.9 227.632C1345.41 227.897 1346.55 228.434 1348.24 228.899C1347.55 229.765 1346.62 230.748 1345.9 231.478C1344.77 231.18 1343.63 230.819 1342.62 230.387V230.387ZM1353.3 233.544L1353.15 233.545C1352.51 233.545 1350.37 233.493 1347.54 232.904C1347.64 232.82 1347.74 232.734 1347.84 232.651C1350.13 233.13 1351.98 233.336 1352.12 233.351L1352.39 233.381L1352.48 233.115C1352.66 232.54 1353.35 232.455 1353.74 232.455C1353.84 232.455 1353.92 232.462 1353.92 232.463L1354.07 232.479L1357.39 229.637L1356.51 229.608C1356.21 229.598 1356.08 229.531 1356.05 229.485L1356.24 228.993L1355.72 229.014C1355.34 229.031 1354.97 229.039 1354.61 229.039H1354.61C1353.56 229.039 1352.59 228.97 1351.69 228.861L1351.9 228.615C1353.71 228.857 1355.88 229.007 1358.5 228.988C1357.88 229.866 1356.32 231.731 1353.3 233.544V233.544ZM1360.82 230.286V231.654C1360.4 231.654 1359.98 231.653 1359.57 231.65L1359.45 230.109L1358.44 230.192C1359.12 229.383 1359.41 228.844 1359.44 228.795L1359.71 228.275L1359.13 228.285C1353.57 228.387 1349.94 227.724 1347.65 226.988C1347.48 226.311 1347.39 225.546 1347.39 224.653C1347.39 218.561 1351.28 209.352 1356.45 205.62C1357.36 206.506 1358.75 206.894 1360.07 206.032C1360.36 205.843 1360.61 205.596 1360.85 205.332C1360.91 205.334 1360.96 205.346 1361.02 205.346C1361.21 205.346 1361.4 205.331 1361.59 205.307C1361.84 205.404 1362.07 205.501 1362.29 205.598C1363.35 206.061 1364.24 205.773 1364.86 205.134C1369.59 207.999 1373.39 215.578 1374.38 221.704C1372.22 222.569 1368.79 223.414 1363.52 223.562C1364.56 222.969 1365.34 221.969 1365.06 220.657C1364.76 219.269 1363.6 218.88 1362.4 218.816C1362.4 218.164 1362.4 217.514 1362.4 216.862C1362.77 217.025 1363.12 217.212 1363.44 217.412C1364.01 217.769 1364.52 216.846 1363.96 216.489C1363.47 216.182 1362.95 215.931 1362.41 215.74C1362.41 214.985 1362.42 214.232 1362.42 213.479C1362.42 212.789 1361.39 212.789 1361.39 213.479C1361.39 214.142 1361.39 214.803 1361.38 215.464C1360.84 215.369 1360.28 215.36 1359.73 215.436C1359.64 214.94 1359.53 214.447 1359.41 213.959C1359.24 213.294 1358.25 213.576 1358.42 214.242C1358.55 214.722 1358.65 215.199 1358.73 215.682C1358.69 215.699 1358.64 215.707 1358.6 215.726C1357.21 216.276 1356.36 217.678 1357.38 218.985C1357.85 219.594 1358.47 219.84 1359.15 219.922C1359.19 220.824 1359.21 221.727 1359.24 222.629C1358.78 222.334 1358.37 221.956 1357.99 221.556C1357.53 221.067 1356.81 221.823 1357.27 222.311C1357.9 222.981 1358.56 223.487 1359.28 223.811C1359.31 224.581 1359.35 225.353 1359.43 226.12C1359.49 226.8 1360.52 226.804 1360.45 226.12C1360.39 225.457 1360.34 224.793 1360.31 224.127C1360.7 224.195 1361.11 224.212 1361.55 224.171C1361.6 224.88 1361.65 225.59 1361.73 226.299C1361.78 226.706 1362.17 226.865 1362.46 226.783L1362.39 228.256C1361.94 228.296 1361.48 228.334 1361 228.365L1360.43 228.403L1360.73 228.895C1360.76 228.945 1361.11 229.491 1361.88 230.287H1360.82V230.286ZM1379.49 225.349C1378.55 225.792 1377.35 226.199 1376.14 226.553C1375.39 225.782 1374.44 224.752 1373.72 223.839C1375.31 223.357 1376.2 222.861 1376.6 222.593C1376.92 222.873 1377.34 223.018 1377.84 223.017C1378 223.017 1378.15 223.002 1378.26 222.984C1378.62 223.45 1379.2 223.989 1379.56 224.31C1379.39 224.487 1379.31 224.681 1379.32 224.892C1379.32 225.072 1379.39 225.225 1379.49 225.349V225.349ZM1374.12 227.813C1374.28 227.948 1374.43 228.086 1374.6 228.226C1371.55 229.032 1369.29 229.12 1368.8 229.128C1365.65 227.208 1364.02 225.175 1363.39 224.26C1366.02 224.194 1368.2 223.955 1370.02 223.627C1370.09 223.718 1370.17 223.808 1370.24 223.897C1368.78 224.124 1367.31 224.27 1365.84 224.334L1365.23 224.36L1365.56 224.869C1365.56 224.87 1365.49 224.996 1365.05 225.083L1364.32 225.224L1367.89 228.117L1368.06 228.072C1368.06 228.072 1368.38 227.987 1368.76 227.987C1369.31 227.987 1369.69 228.154 1369.87 228.481L1369.99 228.688L1370.23 228.647C1371.53 228.409 1372.83 228.131 1374.12 227.813V227.813ZM1363.55 225.609L1362.7 225.563C1362.66 225.137 1362.62 224.711 1362.59 224.285C1362.74 224.534 1363.04 225.002 1363.55 225.609ZM1362.49 222.864C1362.44 221.854 1362.42 220.843 1362.4 219.833C1362.53 219.837 1362.65 219.848 1362.76 219.865C1364.09 220.066 1364.44 221.54 1363.4 222.37C1363.13 222.584 1362.82 222.741 1362.49 222.864ZM1370.32 227.927C1369.99 227.513 1369.45 227.295 1368.76 227.295C1368.47 227.295 1368.22 227.334 1368.06 227.366L1365.81 225.546C1366 225.438 1366.12 225.302 1366.19 225.136C1366.21 225.095 1366.22 225.052 1366.23 225.008C1368.01 224.91 1369.51 224.733 1370.78 224.515C1371.4 225.201 1372.3 226.148 1373.5 227.248C1372.03 227.598 1370.8 227.838 1370.32 227.927V227.927ZM1361.38 219.86C1361.39 220.946 1361.42 222.036 1361.48 223.122C1361.38 223.137 1361.29 223.156 1361.19 223.166C1360.87 223.203 1360.56 223.176 1360.27 223.102C1360.23 222.052 1360.21 221 1360.17 219.949C1360.57 219.93 1360.98 219.89 1361.38 219.86V219.86ZM1360.12 218.911C1360.07 218.087 1359.99 217.265 1359.89 216.447C1360.38 216.378 1360.89 216.404 1361.38 216.522C1361.37 217.289 1361.37 218.056 1361.37 218.823C1361.04 218.841 1360.73 218.872 1360.46 218.897C1360.34 218.905 1360.23 218.91 1360.12 218.911V218.911ZM1359.09 218.78C1359.03 218.763 1358.96 218.749 1358.9 218.727C1358.6 218.626 1358.33 218.454 1358.1 218.227C1357.46 217.629 1358.34 217.043 1358.9 216.765C1358.98 217.432 1359.04 218.106 1359.09 218.78V218.78ZM1367.37 233.379C1364.11 231.716 1362.37 229.867 1361.67 229.01C1362.17 228.973 1362.64 228.928 1363.11 228.881L1368.45 232.346L1380.16 229.13C1374.12 232.769 1368.15 233.323 1367.37 233.379V233.379ZM1377.04 227.462C1376.94 227.366 1376.83 227.252 1376.69 227.115C1378.02 226.711 1379.31 226.243 1380.27 225.729L1380.86 225.414L1380.26 225.113C1380.13 225.045 1380 224.919 1380 224.872C1380 224.854 1380.05 224.758 1380.28 224.627L1380.71 224.379L1380.33 224.057C1380.32 224.048 1379.11 223.049 1378.69 222.407L1378.55 222.197L1378.31 222.266C1378.31 222.266 1378.1 222.326 1377.84 222.326C1377.43 222.327 1377.12 222.192 1376.92 221.926L1376.7 221.636L1376.42 221.872C1376.41 221.884 1375.56 222.581 1373.28 223.239C1373.21 223.131 1373.13 223.021 1373.06 222.909C1375.83 222.072 1377.24 221.057 1377.85 220.502C1378.84 222.628 1381.17 224.34 1382.19 225.011C1380.56 225.999 1378.83 226.82 1377.04 227.462" fill="#263238" fill-opacity="0.4"/>
<path d="M1370.28 225.338C1369.54 225.134 1368.69 225.273 1368.4 225.644C1368.1 226.017 1368.48 226.487 1369.22 226.691C1369.97 226.895 1370.81 226.755 1371.11 226.383C1371.4 226.01 1371.03 225.542 1370.28 225.338Z" fill="#263238" fill-opacity="0.4"/>
</g>
<defs>
<clipPath id="clip0_304_37">
<rect width="1920" height="1047" fill="white"/>
</clipPath>
</defs>
</svg>
