<svg width="104" height="44" viewBox="0 0 104 44" fill="none" xmlns="http://www.w3.org/2000/svg">
<path d="M25 12H11C9.34315 12 8 13.3431 8 15V29C8 30.6569 9.34315 32 11 32H25C26.6569 32 28 30.6569 28 29V15C28 13.3431 26.6569 12 25 12Z" fill="url(#paint0_linear_206_2)"/>
<path d="M34.144 26.412L35.296 25.08C35.98 25.74 36.676 26.238 37.384 26.574C38.104 26.898 38.854 27.06 39.634 27.06C40.534 27.06 41.266 26.862 41.83 26.466C42.406 26.07 42.694 25.566 42.694 24.954C42.694 24.402 42.496 23.976 42.1 23.676C41.704 23.364 41.05 23.13 40.138 22.974L38.032 22.632C36.88 22.44 36.016 22.074 35.44 21.534C34.876 20.982 34.594 20.256 34.594 19.356C34.594 18.264 35.02 17.388 35.872 16.728C36.724 16.068 37.846 15.738 39.238 15.738C40.138 15.738 41.032 15.888 41.92 16.188C42.808 16.476 43.606 16.896 44.314 17.448L43.27 18.888C42.586 18.372 41.902 17.988 41.218 17.736C40.534 17.472 39.844 17.34 39.148 17.34C38.332 17.34 37.672 17.514 37.168 17.862C36.664 18.21 36.412 18.66 36.412 19.212C36.412 19.728 36.586 20.124 36.934 20.4C37.282 20.664 37.858 20.862 38.662 20.994L40.696 21.318C42.016 21.534 42.988 21.93 43.612 22.506C44.248 23.07 44.566 23.838 44.566 24.81C44.566 25.386 44.446 25.914 44.206 26.394C43.966 26.874 43.624 27.282 43.18 27.618C42.748 27.954 42.22 28.218 41.596 28.41C40.972 28.59 40.288 28.68 39.544 28.68C38.536 28.68 37.564 28.482 36.628 28.086C35.692 27.69 34.864 27.132 34.144 26.412ZM46.1011 28.5V15.9L47.9011 15.504V20.256C48.2611 19.896 48.6691 19.626 49.1251 19.446C49.5931 19.254 50.103 19.158 50.655 19.158C51.699 19.158 52.557 19.494 53.229 20.166C53.901 20.826 54.237 21.684 54.237 22.74V28.5H52.437V23.046C52.437 22.326 52.227 21.762 51.807 21.354C51.399 20.934 50.853 20.724 50.169 20.724C49.6891 20.724 49.2511 20.826 48.8551 21.03C48.4711 21.234 48.1531 21.528 47.9011 21.912V28.5H46.1011ZM55.9 23.91C55.9 23.25 56.02 22.632 56.26 22.056C56.512 21.468 56.854 20.964 57.286 20.544C57.718 20.112 58.222 19.776 58.798 19.536C59.386 19.284 60.01 19.158 60.67 19.158C61.33 19.158 61.948 19.284 62.524 19.536C63.112 19.776 63.616 20.112 64.036 20.544C64.468 20.964 64.804 21.468 65.044 22.056C65.296 22.632 65.422 23.25 65.422 23.91C65.422 24.582 65.296 25.212 65.044 25.8C64.804 26.376 64.468 26.88 64.036 27.312C63.616 27.732 63.112 28.068 62.524 28.32C61.948 28.56 61.33 28.68 60.67 28.68C60.01 28.68 59.386 28.56 58.798 28.32C58.222 28.068 57.718 27.732 57.286 27.312C56.854 26.88 56.512 26.376 56.26 25.8C56.02 25.212 55.9 24.582 55.9 23.91ZM60.67 27.096C61.498 27.096 62.2 26.79 62.776 26.178C63.364 25.554 63.658 24.798 63.658 23.91C63.658 23.022 63.364 22.272 62.776 21.66C62.2 21.048 61.498 20.742 60.67 20.742C59.842 20.742 59.134 21.048 58.546 21.66C57.958 22.272 57.664 23.022 57.664 23.91C57.664 24.798 57.952 25.554 58.528 26.178C59.116 26.79 59.83 27.096 60.67 27.096ZM67.1245 32.226V19.338H68.9065V20.22C69.2785 19.884 69.7045 19.632 70.1845 19.464C70.6645 19.284 71.1745 19.194 71.7145 19.194C72.3625 19.194 72.9685 19.32 73.5325 19.572C74.0965 19.812 74.5825 20.142 74.9905 20.562C75.4105 20.982 75.7405 21.48 75.9805 22.056C76.2205 22.632 76.3405 23.25 76.3405 23.91C76.3405 24.57 76.2205 25.194 75.9805 25.782C75.7405 26.358 75.4105 26.856 74.9905 27.276C74.5825 27.696 74.0905 28.032 73.5145 28.284C72.9385 28.524 72.3265 28.644 71.6785 28.644C71.1745 28.644 70.6825 28.566 70.2025 28.41C69.7345 28.254 69.3085 28.032 68.9245 27.744V32.226H67.1245ZM71.4805 20.76C70.9645 20.76 70.4845 20.856 70.0405 21.048C69.5965 21.24 69.2245 21.51 68.9245 21.858V25.998C69.2125 26.334 69.5785 26.598 70.0225 26.79C70.4785 26.982 70.9645 27.078 71.4805 27.078C72.3565 27.078 73.0885 26.778 73.6765 26.178C74.2765 25.578 74.5765 24.828 74.5765 23.928C74.5765 23.028 74.2765 22.278 73.6765 21.678C73.0765 21.066 72.3445 20.76 71.4805 20.76ZM78.058 28.5V15.9L79.858 15.504V23.37L84.304 19.338H86.41L81.694 23.64L86.662 28.5H84.286L79.858 24.18V28.5H78.058ZM90.044 28.662C89.048 28.662 88.238 28.404 87.614 27.888C86.99 27.372 86.678 26.7 86.678 25.872C86.678 25.008 87.008 24.33 87.668 23.838C88.328 23.334 89.234 23.082 90.386 23.082C90.83 23.082 91.262 23.13 91.682 23.226C92.102 23.31 92.504 23.43 92.888 23.586V22.614C92.888 21.966 92.696 21.48 92.312 21.156C91.928 20.832 91.376 20.67 90.656 20.67C90.236 20.67 89.798 20.736 89.342 20.868C88.886 20.988 88.376 21.18 87.812 21.444L87.146 20.094C87.83 19.77 88.478 19.536 89.09 19.392C89.702 19.236 90.308 19.158 90.908 19.158C92.096 19.158 93.014 19.446 93.662 20.022C94.322 20.586 94.652 21.39 94.652 22.434V28.5H92.888V27.708C92.48 28.032 92.042 28.272 91.574 28.428C91.106 28.584 90.596 28.662 90.044 28.662ZM88.406 25.836C88.406 26.28 88.592 26.64 88.964 26.916C89.348 27.192 89.846 27.33 90.458 27.33C90.938 27.33 91.382 27.258 91.79 27.114C92.198 26.97 92.564 26.754 92.888 26.466V24.882C92.54 24.69 92.174 24.552 91.79 24.468C91.406 24.372 90.986 24.324 90.53 24.324C89.882 24.324 89.366 24.462 88.982 24.738C88.598 25.014 88.406 25.38 88.406 25.836Z" fill="#0C2146"/>
<path d="M12.9932 25.724L14.3212 24.06C14.9719 24.6254 15.5959 25.0414 16.1932 25.308C16.8012 25.564 17.4412 25.692 18.1132 25.692C18.8065 25.692 19.3612 25.564 19.7772 25.308C20.1932 25.052 20.4012 24.7107 20.4012 24.284C20.4012 23.9 20.2572 23.6014 19.9692 23.388C19.6919 23.1747 19.2225 23.0147 18.5612 22.908L16.3372 22.524C15.3772 22.364 14.6465 22.028 14.1452 21.516C13.6545 21.004 13.4092 20.3427 13.4092 19.532C13.4092 18.4867 13.8039 17.66 14.5932 17.052C15.3932 16.444 16.4705 16.14 17.8252 16.14C18.6359 16.14 19.4519 16.2787 20.2732 16.556C21.1052 16.8334 21.8305 17.2174 22.4492 17.708L21.2012 19.436C20.6039 18.9774 20.0172 18.6414 19.4412 18.428C18.8652 18.204 18.2732 18.092 17.6652 18.092C17.0465 18.092 16.5505 18.2094 16.1772 18.444C15.8039 18.668 15.6172 18.972 15.6172 19.356C15.6172 19.6974 15.7399 19.964 15.9852 20.156C16.2305 20.348 16.6412 20.4867 17.2172 20.572L19.3292 20.924C20.4385 21.1054 21.2705 21.4627 21.8252 21.996C22.3905 22.5187 22.6732 23.212 22.6732 24.076C22.6732 25.164 22.2412 26.0334 21.3772 26.684C20.5239 27.3347 19.3825 27.66 17.9532 27.66C17.0572 27.66 16.1719 27.4894 15.2972 27.148C14.4332 26.8067 13.6652 26.332 12.9932 25.724Z" fill="white"/>
<defs>
<linearGradient id="paint0_linear_206_2" x1="8" y1="22" x2="28" y2="22" gradientUnits="userSpaceOnUse">
<stop stop-color="#2979FF"/>
<stop offset="1" stop-color="#4C589E"/>
</linearGradient>
</defs>
</svg>
